<?xml version="1.0" encoding="UTF-8" standalone="no"?>
<svg
   xmlns:dc="http://purl.org/dc/elements/1.1/"
   xmlns:cc="http://creativecommons.org/ns#"
   xmlns:rdf="http://www.w3.org/1999/02/22-rdf-syntax-ns#"
   xmlns:svg="http://www.w3.org/2000/svg"
   xmlns="http://www.w3.org/2000/svg"
   xmlns:xlink="http://www.w3.org/1999/xlink"
   xmlns:sodipodi="http://sodipodi.sourceforge.net/DTD/sodipodi-0.dtd"
   xmlns:inkscape="http://www.inkscape.org/namespaces/inkscape"
   viewBox="0 0 128 128"
   height="128"
   width="128"
   xml:space="preserve"
   id="svg3737"
   version="1.1"
   sodipodi:docname="icon_128x128.svg"
   inkscape:version="0.92.2 (30a58d1, 2017-08-07)"><sodipodi:namedview
     pagecolor="#ffffff"
     bordercolor="#666666"
     borderopacity="1"
     objecttolerance="10"
     gridtolerance="10"
     guidetolerance="10"
     inkscape:pageopacity="0"
     inkscape:pageshadow="2"
     inkscape:window-width="640"
     inkscape:window-height="480"
     id="namedview5546"
     showgrid="false"
     inkscape:zoom="1.84375"
     inkscape:cx="64"
     inkscape:cy="64"
     inkscape:window-x="0"
     inkscape:window-y="27"
     inkscape:window-maximized="0"
     inkscape:current-layer="svg3737" /><metadata
     id="metadata3743"><rdf:RDF><cc:Work
         rdf:about=""><dc:format>image/svg+xml</dc:format><dc:type
           rdf:resource="http://purl.org/dc/dcmitype/StillImage" /><dc:title></dc:title></cc:Work></rdf:RDF></metadata><defs
     id="defs3741"><linearGradient
       x1="0"
       y1="0"
       x2="1"
       y2="0"
       gradientUnits="userSpaceOnUse"
       gradientTransform="matrix(57,50,50,-57,129.61035,372.88379)"
       spreadMethod="pad"
       id="linearGradient4670"><stop
         style="stop-opacity:1;stop-color:#d9534f"
         offset="0"
         id="stop4666" /><stop
         style="stop-opacity:1;stop-color:#fbc707"
         offset="1"
         id="stop4668" /></linearGradient><clipPath
       id="clipPath3753"
       clipPathUnits="userSpaceOnUse"><path
         id="path3751"
         d="M 0,792 H 612 V 0 H 0 Z" /></clipPath><radialGradient
       id="radialGradient3773"
       spreadMethod="pad"
       gradientTransform="matrix(267.66052,0,0,-267.66052,306.5,395.5)"
       gradientUnits="userSpaceOnUse"
       r="1"
       cy="0"
       cx="0"
       fy="0"
       fx="0"><stop
         id="stop3767"
         offset="0"
         style="stop-opacity:1;stop-color:#ffffff" /><stop
         id="stop3769"
         offset="0.31"
         style="stop-opacity:1;stop-color:#ffffff" /><stop
         id="stop3771"
         offset="1"
         style="stop-opacity:1;stop-color:#f4f4f4" /></radialGradient><clipPath
       id="clipPath3785"
       clipPathUnits="userSpaceOnUse"><path
         id="path3783"
         d="M 0,792 H 612 V 0 H 0 Z" /></clipPath><linearGradient
       id="linearGradient3803"
       spreadMethod="pad"
       gradientTransform="matrix(57,50,50,-57,129.61035,372.88379)"
       gradientUnits="userSpaceOnUse"
       y2="0"
       x2="1"
       y1="0"
       x1="0"><stop
         id="stop3799"
         offset="0"
         style="stop-opacity:1;stop-color:#d9534f" /><stop
         id="stop3801"
         offset="1"
         style="stop-opacity:1;stop-color:#fbc707" /></linearGradient><clipPath
       id="clipPath3813"
       clipPathUnits="userSpaceOnUse"><path
         id="path3811"
         d="M 0,792 H 612 V 0 H 0 Z" /></clipPath><radialGradient
       id="radialGradient3831"
       spreadMethod="pad"
       gradientTransform="matrix(21.2603,0,0,-21.260284,162,418)"
       gradientUnits="userSpaceOnUse"
       r="1"
       cy="0"
       cx="0"
       fy="0"
       fx="0"><stop
         id="stop3827"
         offset="0"
         style="stop-opacity:1;stop-color:#b6b5b5" /><stop
         id="stop3829"
         offset="1"
         style="stop-opacity:1;stop-color:#615e5e" /></radialGradient><clipPath
       id="clipPath3841"
       clipPathUnits="userSpaceOnUse"><path
         id="path3839"
         d="M 0,792 H 612 V 0 H 0 Z" /></clipPath><linearGradient
       gradientUnits="userSpaceOnUse"
       y2="397.17953"
       x2="197.83099"
       y1="397.17953"
       x1="118.432"
       id="linearGradient4656"
       xlink:href="#linearGradient3803" /><linearGradient
       gradientUnits="userSpaceOnUse"
       y2="397.17953"
       x2="197.83099"
       y1="397.17953"
       x1="118.432"
       id="linearGradient4664"
       xlink:href="#linearGradient4670" /><filter
       id="filter5222"
       style="color-interpolation-filters:sRGB"><feFlood
         id="feFlood5212"
         result="flood"
         flood-color="rgb(0,0,0)"
         flood-opacity="0.498039" /><feComposite
         id="feComposite5214"
         result="composite1"
         operator="in"
         in2="SourceGraphic"
         in="flood" /><feGaussianBlur
         id="feGaussianBlur5216"
         result="blur"
         stdDeviation="2.8"
         in="composite1" /><feOffset
         id="feOffset5218"
         result="offset"
         dy="-3.4"
         dx="4.57967e-15" /><feComposite
         id="feComposite5220"
         result="composite2"
         operator="over"
         in2="offset"
         in="SourceGraphic" /></filter><linearGradient
       y2="397.17953"
       x2="197.83099"
       y1="397.17953"
       x1="118.432"
       gradientUnits="userSpaceOnUse"
       id="linearGradient5271"
       xlink:href="#linearGradient3803" /><linearGradient
       y2="397.17953"
       x2="197.83099"
       y1="397.17953"
       x1="118.432"
       gradientUnits="userSpaceOnUse"
       id="linearGradient5273"
       xlink:href="#linearGradient4670" /><linearGradient
       y2="397.17953"
       x2="197.83099"
       y1="397.17953"
       x1="118.432"
       gradientUnits="userSpaceOnUse"
       id="linearGradient5275"
       xlink:href="#linearGradient3803" /><linearGradient
       y2="397.17953"
       x2="197.83099"
       y1="397.17953"
       x1="118.432"
       gradientUnits="userSpaceOnUse"
       id="linearGradient5277"
       xlink:href="#linearGradient4670" /><linearGradient
       y2="397.17953"
       x2="197.83099"
       y1="397.17953"
       x1="118.432"
       gradientUnits="userSpaceOnUse"
       id="linearGradient5279"
       xlink:href="#linearGradient3803" /><linearGradient
       y2="397.17953"
       x2="197.83099"
       y1="397.17953"
       x1="118.432"
       gradientUnits="userSpaceOnUse"
       id="linearGradient5281"
       xlink:href="#linearGradient4670" /><linearGradient
       y2="397.17953"
       x2="197.83099"
       y1="397.17953"
       x1="118.432"
       gradientUnits="userSpaceOnUse"
       id="linearGradient5283"
       xlink:href="#linearGradient3803" /><linearGradient
       y2="397.17953"
       x2="197.83099"
       y1="397.17953"
       x1="118.432"
       gradientUnits="userSpaceOnUse"
       id="linearGradient5285"
       xlink:href="#linearGradient4670" /><linearGradient
       y2="397.17953"
       x2="197.83099"
       y1="397.17953"
       x1="118.432"
       gradientUnits="userSpaceOnUse"
       id="linearGradient5287"
       xlink:href="#linearGradient3803" /><linearGradient
       y2="397.17953"
       x2="197.83099"
       y1="397.17953"
       x1="118.432"
       gradientUnits="userSpaceOnUse"
       id="linearGradient5289"
       xlink:href="#linearGradient4670" /><linearGradient
       y2="397.17953"
       x2="197.83099"
       y1="397.17953"
       x1="118.432"
       gradientUnits="userSpaceOnUse"
       id="linearGradient5291"
       xlink:href="#linearGradient3803" /><linearGradient
       y2="397.17953"
       x2="197.83099"
       y1="397.17953"
       x1="118.432"
       gradientUnits="userSpaceOnUse"
       id="linearGradient5293"
       xlink:href="#linearGradient4670" /></defs><g
     style="display:inline"
     transform="matrix(1.3333333,0,0,-1.3333333,-147.3228,597.64699)"
     id="g3745"><g
       transform="matrix(1.0099777,0,0,1.0725248,-1.1816821,-26.089046)"
       style="fill:url(#linearGradient4656);fill-opacity:1;stroke:url(#linearGradient4664);filter:url(#filter5222)"
       id="g3779"><g
         style="fill:url(#linearGradient5291);fill-opacity:1;stroke:url(#linearGradient5293)"
         clip-path="url(#clipPath3785)"
         id="g3781"><g
           style="fill:url(#linearGradient5287);fill-opacity:1;stroke:url(#linearGradient5289)"
           id="g3787"><g
             style="fill:url(#linearGradient5283);fill-opacity:1;stroke:url(#linearGradient5285)"
             id="g3789"><g
               style="fill:url(#linearGradient5279);fill-opacity:1;stroke:url(#linearGradient5281)"
               id="g3795"><g
                 style="fill:url(#linearGradient5275);fill-opacity:1;stroke:url(#linearGradient5277)"
                 id="g3797"><path
                   id="path3805"
                   style="fill:url(#linearGradient5271);fill-opacity:1;fill-rule:evenodd;stroke:url(#linearGradient5273)"
                   d="m 157.351,433.191 c 0.567,0.147 1.138,0.283 1.712,0.409 v -5.835 c -1.926,0.529 -1.622,3.227 -2.087,4.388 -1.651,-1.85 -3.609,-5.427 -6.594,-6.576 -7.131,-2.747 -13.892,-8.176 -18.141,-14.563 -1.762,-2.686 -5.707,-3.828 -7.891,-5.053 1.187,-0.811 4.53,-1.067 3.736,-3.958 -2.188,-8.221 0.13,-16.274 7.332,-20.036 3.276,-1.743 1.939,-11.204 2.347,-16.818 2.727,4.833 5.831,14.32 10.385,14.909 3.757,0.486 7.457,1.681 10.913,3.43 v -21.945 c -7.482,-2.294 -15.044,-2.507 -22.073,-0.116 -10.75,3.627 -16.725,12.216 -18.201,21.394 -0.217,1.341 -0.333,2.713 -0.357,4.105 v 1.012 c 0.091,5.805 1.787,11.943 4.822,17.887 3.48,6.798 8.501,12.815 14.154,17.346 5.646,4.526 12.137,7.99 19.943,10.02 m 1.712,0.409 c 7.32,1.602 15.091,1.397 21.298,-1.01 8.514,-3.301 15.679,-10.617 17.179,-21.562 0.176,-1.253 0.272,-2.508 0.291,-3.763 v -0.932 c -0.18,-12.177 -7.517,-24.264 -19.054,-33.793 -6.2,-5.122 -12.924,-8.916 -19.714,-10.997 v 21.945 c 8.359,4.231 15.293,11.712 18.169,20.306 1.512,4.293 11.331,5.464 16.544,7.18 -5.377,1.45 -14.864,1.985 -15.887,5.496 -2.234,7.669 -9.512,11.582 -17.902,11.209 -0.355,-0.018 -0.66,0.013 -0.924,0.086 z" /></g></g></g></g></g></g><g
       transform="matrix(1.0559671,0,0,1.0949442,-7.4411085,-36.986141)"
       id="g3807"><g
         clip-path="url(#clipPath3813)"
         id="g3809"><g
           id="g3815"><g
             id="g3817"><g
               id="g3823"><g
                 id="g3825"><path
                   id="path3833"
                   style="fill:url(#radialGradient3831);fill-rule:evenodd;stroke:none"
                   d="m 153.591,422.574 c 8.477,1.616 16.595,-2.169 15.248,-12.455 -1.344,-10.287 -14.821,-21.285 -25.278,-20.525 -10.457,0.759 -12.502,9.618 -9.08,17.607 3.423,7.989 10.633,13.757 19.11,15.373" /></g></g></g></g></g></g><g
       id="g3835"><g
         clip-path="url(#clipPath3841)"
         id="g3837" /></g></g></svg>